<?xml version="1.0" encoding="UTF-8" standalone="no"?>
<svg
   xmlns:dc="http://purl.org/dc/elements/1.1/"
   xmlns:cc="http://creativecommons.org/ns#"
   xmlns:rdf="http://www.w3.org/1999/02/22-rdf-syntax-ns#"
   xmlns:svg="http://www.w3.org/2000/svg"
   xmlns="http://www.w3.org/2000/svg"
   id="svg32"
   xml:space="preserve"
   width="64px"
   viewBox="0 0 64 64"
   version="1.1"
   height="64px"
   enable-background="new 0 0 64 64"><metadata
     id="metadata38"><rdf:RDF><cc:Work
         rdf:about=""><dc:format>image/svg+xml</dc:format><dc:type
           rdf:resource="http://purl.org/dc/dcmitype/StillImage" /><dc:title></dc:title></cc:Work></rdf:RDF></metadata><defs
     id="defs36" /><g
     id="Layer_1"><path
       id="circle2"
       d="M 23.211134,10.666012 C 14.784402,13.969147 9.2590912,21.950254 9.2542372,30.826224 c -2.8e-5,12.002724 9.9524738,21.732862 22.2294988,21.732835 12.277025,2.7e-5 22.229527,-9.730111 22.229499,-21.732835 -0.0092,-3.688302 -0.978398,-7.313635 -2.816319,-10.534652 -1.356229,0.207269 -2.734506,0.320582 -4.10958,0.28039 -2.972567,-0.08689 -6.066988,-0.938666 -8.313573,-3.247996 -3.000658,-3.084454 -5.609597,-4.637316 -7.40152,-5.431902 -1.791922,-0.794592 -2.51527,-0.809822 -2.51527,-0.809822 z"
       style="fill:#ff7f2a;stroke-width:0.68686616" /><g
       style="opacity:0.2"
       transform="matrix(0.69467034,0,0,0.67914962,9.2542372,9.0939066)"
       id="g8"><circle
         style="fill:#231f20"
         id="circle6"
         r="20"
         cy="34"
         cx="32" /></g><g
       transform="matrix(0.69467034,0,0,0.67914962,9.2542372,9.0939066)"
       id="g12"><circle
         style="fill:#ffffff"
         id="circle10"
         r="20"
         cy="32"
         cx="32" /></g><g
       transform="matrix(0.69467034,0,0,0.67914962,9.2542372,9.0939066)"
       id="g16"><circle
         style="fill:#4db9dc;fill-opacity:1"
         id="circle14"
         r="12"
         cy="32"
         cx="32" /></g><g
       transform="matrix(0.69467034,0,0,0.67914962,9.2542372,9.0939066)"
       id="g20"><circle
         style="fill:#4f5d73"
         id="circle18"
         r="4"
         cy="32"
         cx="32" /></g><g
       transform="matrix(0.69467034,0,0,0.67914962,9.2542372,9.0939066)"
       id="g24"><circle
         style="fill:#ffffff"
         id="circle22"
         r="2"
         cy="30"
         cx="34" /></g><g
       transform="matrix(0.69467034,0,0,0.67914962,9.2542372,9.0939066)"
       id="g28"><circle
         style="fill:#ffffff"
         id="circle26"
         r="4"
         cy="24"
         cx="40" /></g><path
       id="path207"
       d="m 28.763691,8.5515746 c 0,0 5.149822,0.401072 11.591256,7.0223864 6.614136,6.798863 23.806086,-2.606919 23.806086,-2.606919 0,0 -10.55101,3.655761 -15.554804,-6.4330644 -5.389766,-10.867 -19.842538,2.017597 -19.842538,2.017597 z"
       style="display:inline;opacity:1;vector-effect:none;fill:#84c000;fill-opacity:1;stroke:none;stroke-width:5.13380861;stroke-linecap:square;stroke-linejoin:miter;stroke-miterlimit:4;stroke-dasharray:none;stroke-dashoffset:0;stroke-opacity:1;paint-order:markers stroke fill" /></g><g
     id="Layer_2" /></svg>